:FULLY-SPECIFIED
:FORCE-ALL-JOINTS-BE-3DOF
:DEGREES
1019
root 1.14533 15.1617 32.4361 4.84514 -3.44752 3.55021
lfemur 8.42799 0.478839 5.75325
ltibia -5.24792e-14 0 0
lfoot -30.1219 -10.9837 -3.74074e-05
ltoes -34.4108 0 0
rfemur -31.5756 -15.8677 -5.99041
rtibia 50.1707 -0 0
rfoot -22.3869 4.61344 0.000260755
rtoes -42.6315 0 0
lowerback -1.3983 -0.149673 0.296051
upperback -0.541985 -0.18937 -5.92171
thorax 0.205898 -0.102442 -6.3097
lowerneck -7.23142 0.92728 6.22299
upperneck 1.70654 0.542884 3.54761
head 1.77401 0.409916 0.0818798
lclavicle -2.28602e-15 -1.90833e-14 0
lhumerus -58.7053 -46.5005 115.393
lradius 55.7061 -0 0
lwrist 25.1541 0 0
lhand 37.2047 24.8675 0.000153297
lfingers 7.12502 -0 0
lthumb 60.0404 38.6051 8.24927e-05
rclavicle -2.28602e-15 -1.90833e-14 0
rhumerus 2.792 -23.8566 0.170863
rradius 27.6601 -0 0
rwrist -10.351 0 0
rhand -30.7446 -42.9093 8.43402e-05
rfingers 7.12502 -0 0
rthumb -4.03654 -72.8508 8.12828e-05
1020
root 1.14571 15.1613 32.4389 4.84229 -3.43526 3.54024
lfemur 8.43698 0.466833 5.76421
ltibia -5.24792e-14 0 0
lfoot -30.1258 -10.9839 -3.51125e-05
ltoes -34.4195 0 0
rfemur -31.5624 -15.8775 -5.98914
rtibia 50.1807 -0 0
rfoot -22.3623 4.66571 0.000213526
rtoes -42.5628 0 0
lowerback -1.4114 -0.143874 0.280397
upperback -0.53934 -0.180817 -5.93094
thorax 0.21696 -0.0979043 -6.31045
lowerneck -7.22923 0.920463 6.24582
upperneck 1.71248 0.531639 3.54795
head 1.77554 0.404692 0.0777254
lclavicle -2.28602e-15 -1.90833e-14 0
lhumerus -58.7008 -46.509 115.379
lradius 55.7158 -0 0
lwrist 25.1671 0 0
lhand 37.2197 24.8967 0.000132749
lfingers 7.12502 -0 0
lthumb 60.0532 38.6208 7.02065e-05
rclavicle -2.28602e-15 -1.90833e-14 0
rhumerus 2.7776 -23.851 0.183215
rradius 27.6508 -0 0
rwrist -10.3075 0 0
rhand -30.7322 -42.8673 8.85264e-05
rfingers 7.12502 -0 0
rthumb -4.02463 -72.8091 8.52041e-05
1021
root 1.14622 15.1609 32.4417 4.83981 -3.42419 3.53112
lfemur 8.44622 0.456046 5.77384
ltibia -5.24792e-14 0 0
lfoot -30.1302 -10.9851 -3.12856e-05
ltoes -34.4264 0 0
rfemur -31.5498 -15.8881 -5.98891
rtibia 50.19 -0 0
rfoot -22.3384 4.71907 0.000160716
rtoes -42.4937 0 0
lowerback -1.42457 -0.138266 0.264583
upperback -0.536721 -0.172512 -5.93993
thorax 0.228005 -0.0934939 -6.31086
lowerneck -7.2262 0.913873 6.26783
upperneck 1.71622 0.520951 3.54834
head 1.77621 0.399653 0.07374
lclavicle -2.28602e-15 -1.90833e-14 0
lhumerus -58.6967 -46.5181 115.365
lradius 55.725 -0 0
lwrist 25.1815 0 0
lhand 37.2341 24.9249 0.000107138
lfingers 7.12502 -0 0
lthumb 60.0655 38.6361 5.58674e-05
rclavicle -2.28602e-15 -1.90833e-14 0
rhumerus 2.7637 -23.8465 0.195523
rradius 27.6414 -0 0
rwrist -10.2653 0 0
rhand -30.7208 -42.8273 8.64148e-05
rfingers 7.12502 -0 0
rthumb -4.01353 -72.7694 8.30855e-05
1022
root 1.14687 15.1605 32.4446 4.83768 -3.4142 3.52289
lfemur 8.45551 0.446355 5.78202
ltibia -5.24792e-14 0 0
lfoot -30.135 -10.9875 -2.58813e-05
ltoes -34.4313 0 0
rfemur -31.5374 -15.8994 -5.98981
rtibia 50.1981 -0 0
rfoot -22.3154 4.77297 0.000107002
rtoes -42.4249 0 0
lowerback -1.43764 -0.132866 0.248639
upperback -0.53409 -0.164483 -5.94857
thorax 0.238976 -0.0892243 -6.31081
lowerneck -7.22243 0.907512 6.28873
upperneck 1.71749 0.510854 3.54882
head 1.77595 0.394805 0.0699908
lclavicle -2.28602e-15 -1.90833e-14 0
lhumerus -58.6934 -46.5283 115.353
lradius 55.7338 -0 0
lwrist 25.1975 0 0
lhand 37.2475 24.9517 7.84679e-05
lfingers 7.12502 -0 0
lthumb 60.0769 38.6509 4.04719e-05
rclavicle -2.28602e-15 -1.90833e-14 0
rhumerus 2.75008 -23.843 0.207849
rradius 27.6318 -0 0
rwrist -10.225 0 0
rhand -30.7101 -42.7897 7.71997e-05
rfingers 7.12502 -0 0
rthumb -4.00329 -72.732 7.4162e-05
1023
root 1.14769 15.1601 32.4475 4.83584 -3.40515 3.5156
lfemur 8.46464 0.437637 5.78861
ltibia -5.24792e-14 0 0
lfoot -30.1402 -10.9908 -1.88713e-05
ltoes -34.4338 0 0
rfemur -31.525 -15.9115 -5.99194
rtibia 50.2048 -0 0
rfoot -22.2934 4.82688 5.79316e-05
rtoes -42.3573 0 0
lowerback -1.45045 -0.127692 0.232592
upperback -0.53141 -0.156755 -5.95673
thorax 0.249816 -0.0851097 -6.3102
lowerneck -7.21799 0.901383 6.30824
upperneck 1.71605 0.501381 3.54947
head 1.77466 0.390156 0.0665454
lclavicle -2.28602e-15 -1.90833e-14 0
lhumerus -58.6911 -46.5399 115.343
lradius 55.7424 -0 0
lwrist 25.2149 0 0
lhand 37.2595 24.9769 4.91656e-05
lfingers 7.12502 -0 0
lthumb 60.0873 38.6652 2.51619e-05
rclavicle -2.28602e-15 -1.90833e-14 0
rhumerus 2.73655 -23.8405 0.220256
rradius 27.6221 -0 0
rwrist -10.1869 0 0
rhand -30.7005 -42.7547 6.01655e-05
rfingers 7.12502 -0 0
rthumb -3.99394 -72.6972 5.77559e-05
1024
root 1.14871 15.1598 32.4503 4.83427 -3.39691 3.50928
lfemur 8.4734 0.429768 5.7935
ltibia -5.24792e-14 0 0
lfoot -30.146 -10.9952 -1.02433e-05
ltoes -34.4337 0 0
rfemur -31.5124 -15.9244 -5.99539
rtibia 50.2096 -0 0
rfoot -22.2728 4.88026 1.98822e-05
rtoes -42.2914 0 0
lowerback -1.46282 -0.122761 0.216473
upperback -0.52864 -0.149358 -5.96431
thorax 0.260469 -0.0811641 -6.30894
lowerneck -7.21297 0.895491 6.32609
upperneck 1.71162 0.492566 3.55033
head 1.7723 0.385713 0.0634711
lclavicle -2.28602e-15 -1.90833e-14 0
lhumerus -58.6901 -46.5535 115.334
lradius 55.751 -0 0
lwrist 25.2339 0 0
lhand 37.27 25 2.20036e-05
lfingers 7.12502 -0 0
lthumb 60.0962 38.6789 1.12092e-05
rclavicle -2.28602e-15 -1.90833e-14 0
rhumerus 2.72288 -23.839 0.232804
rradius 27.6121 -0 0
rwrist -10.1516 0 0
rhand -30.6918 -42.7228 3.46494e-05
rfingers 7.12502 -0 0
rthumb -3.98554 -72.6654 3.32403e-05
